<mxfile host="app.diagrams.net" modified="2023-03-24T13:08:35.878Z" agent="5.0 (X11)" etag="U3qFhmm_fS4Phgs3YgVv" version="21.0.8" type="github">
  <diagram id="C5RBs43oDa-KdzZeNtuy" name="Page-1">
    <mxGraphModel dx="989" dy="548" grid="1" gridSize="10" guides="1" tooltips="1" connect="1" arrows="1" fold="1" page="1" pageScale="1" pageWidth="827" pageHeight="1169" math="0" shadow="0">
      <root>
        <mxCell id="WIyWlLk6GJQsqaUBKTNV-0" />
        <mxCell id="WIyWlLk6GJQsqaUBKTNV-1" parent="WIyWlLk6GJQsqaUBKTNV-0" />
        <mxCell id="pSLwdAiSgzmM9Ny6PPHc-1" value="" style="edgeStyle=orthogonalEdgeStyle;rounded=0;orthogonalLoop=1;jettySize=auto;html=1;" edge="1" parent="WIyWlLk6GJQsqaUBKTNV-1" source="WIyWlLk6GJQsqaUBKTNV-3" target="pSLwdAiSgzmM9Ny6PPHc-0">
          <mxGeometry relative="1" as="geometry" />
        </mxCell>
        <mxCell id="WIyWlLk6GJQsqaUBKTNV-3" value="Начало" style="rounded=1;whiteSpace=wrap;html=1;fontSize=12;glass=0;strokeWidth=1;shadow=0;" parent="WIyWlLk6GJQsqaUBKTNV-1" vertex="1">
          <mxGeometry x="175" y="110" width="120" height="40" as="geometry" />
        </mxCell>
        <mxCell id="pSLwdAiSgzmM9Ny6PPHc-3" value="" style="edgeStyle=orthogonalEdgeStyle;rounded=0;orthogonalLoop=1;jettySize=auto;html=1;" edge="1" parent="WIyWlLk6GJQsqaUBKTNV-1" source="pSLwdAiSgzmM9Ny6PPHc-0" target="pSLwdAiSgzmM9Ny6PPHc-2">
          <mxGeometry relative="1" as="geometry" />
        </mxCell>
        <mxCell id="pSLwdAiSgzmM9Ny6PPHc-0" value="&lt;div&gt;Генерируем&lt;/div&gt;&lt;div&gt;массив случайных&lt;/div&gt;&lt;div&gt;чисел.&lt;br&gt;&lt;/div&gt;" style="whiteSpace=wrap;html=1;rounded=1;glass=0;strokeWidth=1;shadow=0;" vertex="1" parent="WIyWlLk6GJQsqaUBKTNV-1">
          <mxGeometry x="175" y="170" width="120" height="60" as="geometry" />
        </mxCell>
        <mxCell id="pSLwdAiSgzmM9Ny6PPHc-17" value="" style="edgeStyle=orthogonalEdgeStyle;rounded=0;orthogonalLoop=1;jettySize=auto;html=1;" edge="1" parent="WIyWlLk6GJQsqaUBKTNV-1" source="pSLwdAiSgzmM9Ny6PPHc-2" target="pSLwdAiSgzmM9Ny6PPHc-16">
          <mxGeometry relative="1" as="geometry" />
        </mxCell>
        <mxCell id="pSLwdAiSgzmM9Ny6PPHc-2" value="&lt;div&gt;Выводим исходную матрицу.&lt;/div&gt;" style="whiteSpace=wrap;html=1;rounded=1;glass=0;strokeWidth=1;shadow=0;" vertex="1" parent="WIyWlLk6GJQsqaUBKTNV-1">
          <mxGeometry x="175" y="250" width="120" height="60" as="geometry" />
        </mxCell>
        <mxCell id="pSLwdAiSgzmM9Ny6PPHc-9" value="" style="edgeStyle=orthogonalEdgeStyle;rounded=0;orthogonalLoop=1;jettySize=auto;html=1;" edge="1" parent="WIyWlLk6GJQsqaUBKTNV-1" source="pSLwdAiSgzmM9Ny6PPHc-4">
          <mxGeometry relative="1" as="geometry">
            <mxPoint x="410" y="220" as="targetPoint" />
          </mxGeometry>
        </mxCell>
        <mxCell id="pSLwdAiSgzmM9Ny6PPHc-22" value="" style="edgeStyle=orthogonalEdgeStyle;rounded=0;orthogonalLoop=1;jettySize=auto;html=1;" edge="1" parent="WIyWlLk6GJQsqaUBKTNV-1" source="pSLwdAiSgzmM9Ny6PPHc-4" target="pSLwdAiSgzmM9Ny6PPHc-21">
          <mxGeometry relative="1" as="geometry" />
        </mxCell>
        <mxCell id="pSLwdAiSgzmM9Ny6PPHc-4" value="от i до m с шагом 1" style="rhombus;whiteSpace=wrap;html=1;rounded=1;glass=0;strokeWidth=1;shadow=0;" vertex="1" parent="WIyWlLk6GJQsqaUBKTNV-1">
          <mxGeometry x="370" y="140" width="80" height="80" as="geometry" />
        </mxCell>
        <mxCell id="pSLwdAiSgzmM9Ny6PPHc-6" value="&lt;div&gt;n: кол-во столбцов матрицы.&lt;/div&gt;&lt;div&gt;m:&amp;nbsp; кол-во строк матрицы.&lt;br&gt;&lt;/div&gt;" style="text;whiteSpace=wrap;html=1;" vertex="1" parent="WIyWlLk6GJQsqaUBKTNV-1">
          <mxGeometry x="150" y="70" width="170" height="40" as="geometry" />
        </mxCell>
        <mxCell id="pSLwdAiSgzmM9Ny6PPHc-12" value="" style="edgeStyle=orthogonalEdgeStyle;rounded=0;orthogonalLoop=1;jettySize=auto;html=1;entryX=0.5;entryY=0;entryDx=0;entryDy=0;" edge="1" parent="WIyWlLk6GJQsqaUBKTNV-1" source="pSLwdAiSgzmM9Ny6PPHc-13" target="pSLwdAiSgzmM9Ny6PPHc-14">
          <mxGeometry relative="1" as="geometry" />
        </mxCell>
        <mxCell id="pSLwdAiSgzmM9Ny6PPHc-13" value="от j до n с шагом 2" style="rhombus;whiteSpace=wrap;html=1;rounded=1;glass=0;strokeWidth=1;shadow=0;" vertex="1" parent="WIyWlLk6GJQsqaUBKTNV-1">
          <mxGeometry x="370" y="220" width="80" height="80" as="geometry" />
        </mxCell>
        <mxCell id="pSLwdAiSgzmM9Ny6PPHc-25" value="" style="edgeStyle=orthogonalEdgeStyle;rounded=0;orthogonalLoop=1;jettySize=auto;html=1;" edge="1" parent="WIyWlLk6GJQsqaUBKTNV-1" source="pSLwdAiSgzmM9Ny6PPHc-14" target="pSLwdAiSgzmM9Ny6PPHc-24">
          <mxGeometry relative="1" as="geometry" />
        </mxCell>
        <mxCell id="pSLwdAiSgzmM9Ny6PPHc-14" value="выводим элемент массива, стоящий на i,j позиции." style="whiteSpace=wrap;html=1;rounded=1;glass=0;strokeWidth=1;shadow=0;" vertex="1" parent="WIyWlLk6GJQsqaUBKTNV-1">
          <mxGeometry x="460" y="295" width="120" height="60" as="geometry" />
        </mxCell>
        <mxCell id="pSLwdAiSgzmM9Ny6PPHc-15" value="" style="endArrow=classic;html=1;rounded=0;entryX=0;entryY=0.5;entryDx=0;entryDy=0;exitX=0;exitY=0.5;exitDx=0;exitDy=0;" edge="1" parent="WIyWlLk6GJQsqaUBKTNV-1" source="pSLwdAiSgzmM9Ny6PPHc-24" target="pSLwdAiSgzmM9Ny6PPHc-4">
          <mxGeometry width="50" height="50" relative="1" as="geometry">
            <mxPoint x="370" y="350" as="sourcePoint" />
            <mxPoint x="350" y="170" as="targetPoint" />
            <Array as="points">
              <mxPoint x="330" y="325" />
              <mxPoint x="330" y="180" />
            </Array>
          </mxGeometry>
        </mxCell>
        <mxCell id="pSLwdAiSgzmM9Ny6PPHc-16" value="A" style="ellipse;whiteSpace=wrap;html=1;rounded=1;glass=0;strokeWidth=1;shadow=0;" vertex="1" parent="WIyWlLk6GJQsqaUBKTNV-1">
          <mxGeometry x="210" y="320" width="50" height="50" as="geometry" />
        </mxCell>
        <mxCell id="pSLwdAiSgzmM9Ny6PPHc-20" value="" style="edgeStyle=orthogonalEdgeStyle;rounded=0;orthogonalLoop=1;jettySize=auto;html=1;" edge="1" parent="WIyWlLk6GJQsqaUBKTNV-1" source="pSLwdAiSgzmM9Ny6PPHc-18" target="pSLwdAiSgzmM9Ny6PPHc-4">
          <mxGeometry relative="1" as="geometry" />
        </mxCell>
        <mxCell id="pSLwdAiSgzmM9Ny6PPHc-18" value="A" style="ellipse;whiteSpace=wrap;html=1;rounded=1;glass=0;strokeWidth=1;shadow=0;" vertex="1" parent="WIyWlLk6GJQsqaUBKTNV-1">
          <mxGeometry x="385" y="70" width="50" height="50" as="geometry" />
        </mxCell>
        <mxCell id="pSLwdAiSgzmM9Ny6PPHc-21" value="&lt;div&gt;Конец&lt;/div&gt;" style="whiteSpace=wrap;html=1;rounded=1;glass=0;strokeWidth=1;shadow=0;" vertex="1" parent="WIyWlLk6GJQsqaUBKTNV-1">
          <mxGeometry x="470" y="165" width="66" height="30" as="geometry" />
        </mxCell>
        <mxCell id="pSLwdAiSgzmM9Ny6PPHc-24" value="Переход на новую строку" style="whiteSpace=wrap;html=1;rounded=1;glass=0;strokeWidth=1;shadow=0;" vertex="1" parent="WIyWlLk6GJQsqaUBKTNV-1">
          <mxGeometry x="355" y="310" width="80" height="30" as="geometry" />
        </mxCell>
      </root>
    </mxGraphModel>
  </diagram>
</mxfile>
